<svg id="instagram-original" xmlns="http://www.w3.org/2000/svg" width="21" height="21" viewBox="0 0 21 21">
  <path id="Path_556" data-name="Path 556" d="M20.934,6.169a8.22,8.22,0,0,0-.492-2.559,5.1,5.1,0,0,0-1.214-1.87A4.888,4.888,0,0,0,17.391.558,8.023,8.023,0,0,0,14.831.066C13.716,0,13.355,0,10.5,0S7.284,0,6.169.066A8.22,8.22,0,0,0,3.609.558,4.733,4.733,0,0,0,1.772,1.772,5.43,5.43,0,0,0,.558,3.609,8.023,8.023,0,0,0,.066,6.169C0,7.284,0,7.645,0,10.5s0,3.216.066,4.331a8.22,8.22,0,0,0,.492,2.559,5.1,5.1,0,0,0,1.214,1.87,5.1,5.1,0,0,0,1.87,1.214,8.024,8.024,0,0,0,2.559.492C7.284,21,7.645,21,10.5,21s3.216,0,4.331-.066a8.22,8.22,0,0,0,2.559-.492,5.357,5.357,0,0,0,3.084-3.084,8.024,8.024,0,0,0,.492-2.559C21,13.716,21,13.355,21,10.5S21,7.284,20.934,6.169Zm-1.9,8.564a5.662,5.662,0,0,1-.361,1.936,3.471,3.471,0,0,1-2,2,5.662,5.662,0,0,1-1.936.361c-1.116.066-1.444.066-4.233.066s-3.15,0-4.233-.066a5.662,5.662,0,0,1-1.936-.361,3.471,3.471,0,0,1-2-2,5.662,5.662,0,0,1-.361-1.936C1.9,13.65,1.9,13.322,1.9,10.5s0-3.15.066-4.233A5.662,5.662,0,0,1,2.33,4.331a3.471,3.471,0,0,1,2-2,5.662,5.662,0,0,1,1.936-.361C7.383,1.9,7.711,1.9,10.5,1.9s3.15,0,4.233.066a5.662,5.662,0,0,1,1.936.361,3.471,3.471,0,0,1,2,2,5.662,5.662,0,0,1,.361,1.936c.066,1.116.066,1.444.066,4.233S19.1,13.65,19.031,14.733Z" fill="#fff"/>
  <path id="Path_557" data-name="Path 557" d="M21.094,15.6a5.494,5.494,0,1,0,5.494,5.494A5.5,5.5,0,0,0,21.094,15.6Zm0,9.078a3.584,3.584,0,1,1,3.584-3.584A3.588,3.588,0,0,1,21.094,24.678Z" transform="translate(-10.594 -10.594)" fill="#fff"/>
  <circle id="Ellipse_123" data-name="Ellipse 123" cx="1.463" cy="1.463" r="1.463" transform="translate(14.517 3.557)" fill="#fff"/>
</svg>
